<?xml version="1.0" encoding="UTF-8"?>
<svg id="Layer_1" data-name="Layer 1" xmlns="http://www.w3.org/2000/svg" width="270" height="179" viewBox="0 0 270 179">
  <path d="M139.73,144.98c-1.63-6.41-3.26-12.81-4.89-19.22,6.7-.06,13.39-.13,20.09-.19,1.93-8.26,3.86-16.51,5.78-24.77l12.58-.25c-2.35-8.28-4.7-16.57-7.05-24.85.22-4.82-.03-13.5-4.23-23.08-1.79-4.09-6.41-14.62-17.41-21.14-12.76-7.57-29.95-7.27-42.99.77-14.56,8.99-25.34,28.51-19.1,44.86,3.07,8.05,10.27,15.33,19.61,17.82,12.6,3.36,27.48-2.45,32.92-13.58.4-.81,5.57-11.82-.38-20.42-.61-.88-5.24-7.36-12.39-6.9-6.18.39-11.82,5.8-13.23,13.4" fill="none" stroke="#000" stroke-miterlimit="10" stroke-width="1.5"/>
  <path d="M129.58,104.3c1.18-.63,20.09-11.08,21.07-31.26.12-2.4.69-20.03-13-28.68-10.43-6.59-21.71-3.25-22.86-2.9-1.1.35-13.95,4.6-17.77,17.2-.65,2.15-4.08,14.6,3.61,20.64,4.06,3.19,10.87,4.33,16.23.85,5.9-3.83,6.3-10.84,6.33-11.56" fill="none" stroke="#000" stroke-miterlimit="10" stroke-width="1.5"/>
</svg>